<?xml version="1.0" encoding="utf-8"?>
<!-- Generator: Adobe Illustrator 18.1.0, SVG Export Plug-In . SVG Version: 6.00 Build 0)  -->
<!DOCTYPE svg PUBLIC "-//W3C//DTD SVG 1.1//EN" "http://www.w3.org/Graphics/SVG/1.1/DTD/svg11.dtd">
<svg version="1.1" xmlns="http://www.w3.org/2000/svg" xmlns:xlink="http://www.w3.org/1999/xlink" x="0px" y="0px"
	 viewBox="0 0 512 512" style="enable-background:new 0 0 512 512;" xml:space="preserve">
<style type="text/css">
	.st0{display:none;}
	.st1{display:inline;fill:none;}
	.st2{fill:#CCCCCC;}
	.st3{fill:#FFFFFF;}
	.st4{display:inline;fill:none;stroke:#0000FA;stroke-width:0.25;stroke-miterlimit:10;}
	.st5{display:inline;}
	.st6{fill:none;stroke:#0000FA;stroke-width:0.25;stroke-miterlimit:10;}
	.st7{display:inline;fill:none;stroke:#0000FA;stroke-width:0.2631;stroke-miterlimit:10;}
	.st8{opacity:0.1;fill:#0000FA;}
	.st9{display:inline;fill:#FF0066;}
	.st10{fill:#FF0066;}
</style>
<g id="Containment" class="st0">
</g>
<g id="Logotypes">
	<g>
		<rect x="0" y="0" width="512" height="512"/>
		<g>
			<g>
				<path class="st3" d="M51.2,332.8h4.877V384H51.2V332.8z"/>
				<path class="st3" d="M65.677,332.8h21.655c8.605,0,16.422,3.012,16.422,12.549c0,5.379-3.586,10.326-8.893,11.473v0.144
					c6.598,0.861,10.828,5.809,10.828,12.477c0,4.877-1.721,14.557-18.357,14.557H65.677V332.8z M70.554,355.245h16.778
					c7.745,0,11.545-3.872,11.545-8.677c0-6.382-3.872-9.608-11.545-9.608H70.554V355.245z M70.554,379.84h16.778
					c7.244,0,13.482-2.223,13.482-10.54c0-6.598-4.877-9.896-13.482-9.896H70.554V379.84z"/>
				<path class="st3" d="M113.355,332.8h7.172l17.712,44.89l17.64-44.89h7.172V384h-4.877v-44.244h-0.142L140.533,384h-4.589
					l-17.568-44.244h-0.144V384h-4.877V332.8z"/>
			</g>
			<g>
				<path class="st3" d="M101.495,460.8H90.307l-8.677-34.85h-0.142l-8.535,34.85H61.552L48,409.6h11.257l8.103,34.85h0.144
					l8.891-34.85h10.542l8.749,35.281h0.142l8.391-35.281h11.044L101.495,460.8z"/>
				<path class="st3" d="M116.41,435.129c0.574-9.466,9.107-12.407,17.426-12.407c7.386,0,16.277,1.651,16.277,10.542v19.289
					c0,3.37,0.36,6.742,1.291,8.247h-10.326c-0.358-1.147-0.646-2.367-0.718-3.586c-3.226,3.37-7.887,4.589-12.477,4.589
					c-7.1,0-12.621-3.514-12.621-11.114c0.144-16.852,25.097-7.817,24.668-16.135c0-4.303-3.012-5.021-6.596-5.021
					c-3.946,0-6.382,1.579-6.742,5.595H116.41z M139.931,442.659c-1.721,1.505-5.307,1.577-8.461,2.151
					c-3.156,0.574-6.024,1.721-6.024,5.449c0,3.73,2.94,4.733,6.238,4.733c7.959,0,8.247-6.238,8.247-8.533V442.659z"/>
				<path class="st3" d="M170.954,423.728h7.458v6.812h-7.458v18.357c0,3.442,0.86,4.302,4.302,4.302
					c1.147,0,2.223-0.072,3.156-0.286v7.959c-1.721,0.286-3.944,0.358-5.953,0.358c-6.31,0-11.689-1.361-11.689-8.819V430.54h-6.166
					v-6.812h6.166v-11.116h10.184V423.728z"/>
				<path class="st3" d="M191.294,448.753c0,4.373,3.872,6.238,7.815,6.238c2.868,0,6.668-1.147,6.668-4.733
					c0-3.082-4.302-4.23-11.545-5.737c-5.951-1.361-11.759-3.298-11.759-9.894c0-9.466,8.175-11.905,16.135-11.905
					c8.031,0,15.561,2.726,16.349,11.833h-9.68c-0.286-3.944-3.298-5.021-6.956-5.021c-2.295,0-5.665,0.36-5.665,3.442
					c0,3.658,5.809,4.16,11.545,5.523c5.953,1.361,11.759,3.514,11.759,10.398c0,9.752-8.533,12.907-16.922,12.907
					c-8.605,0-17.066-3.226-17.426-13.05H191.294z"/>
				<path class="st3" d="M238.901,422.722c11.689,0,19.219,7.745,19.219,19.577c0,11.761-7.53,19.505-19.219,19.505
					c-11.615,0-19.145-7.744-19.145-19.505C219.757,430.468,227.286,422.722,238.901,422.722z M238.901,454.132
					c6.956,0,9.037-5.881,9.037-11.833c0-5.951-2.081-11.903-9.037-11.903c-6.884,0-8.963,5.953-8.963,11.903
					C229.939,448.251,232.017,454.132,238.901,454.132z"/>
				<path class="st3" d="M262.92,423.728h9.68v5.163h0.216c2.582-4.232,7.028-6.168,11.329-6.168
					c10.828,0,13.554,6.096,13.554,15.275V460.8h-10.184v-20.94c0-6.094-1.721-9.107-6.524-9.107c-5.523,0-7.887,3.084-7.887,10.614
					V460.8H262.92V423.728z"/>
			</g>
		</g>
	</g>
</g>
<g id="Guide_Lines" class="st0">
</g>
<g id="Margins" class="st0">
</g>
</svg>
